<?xml version="1.0" encoding="iso-8859-1"?>
<!-- Generator: Adobe Illustrator 19.0.0, SVG Export Plug-In . SVG Version: 6.00 Build 0)  -->
<svg version="1.1" id="Capa_1" xmlns="http://www.w3.org/2000/svg" xmlns:xlink="http://www.w3.org/1999/xlink" x="0px" y="0px"
	 viewBox="0 0 512 512" style="enable-background:new 0 0 512 512;" xml:space="preserve">
<path style="fill:#3C3A41;" d="M150.004,74.996c0-8.291-6.709-15-15-15H75.276c0,0-0.011,0-0.018,0
	c-10.998,0-20.198,1.592-25.126-8.291L28.423,8.288C24.717,0.862,15.708-2.083,8.297,1.579C0.885,5.285-2.118,14.294,1.588,21.706
	l21.709,43.417C30.972,80.46,46.397,89.996,63.55,89.996h1.298l44.521,112.298c3.091,7.748,11.893,11.43,19.497,8.364
	c7.69-3.076,11.44-11.807,8.364-19.497L97.162,89.996h37.842C143.295,89.996,150.004,83.287,150.004,74.996z"/>
<g>
	<path style="fill:#57555C;" d="M210.237,292.879l-33.999-85.004c-4.556-11.353-13.286-20.186-24.595-24.873
		c-11.294-4.688-23.716-4.6-34.922,0.234c-22.646,9.697-33.208,35.215-24.067,58.065l37.002,92.533
		c3.091,7.747,11.893,11.43,19.497,8.364l52.719-29.824C209.563,309.3,213.313,300.57,210.237,292.879z"/>
	<path style="fill:#57555C;" d="M383.061,242.781c-1.216,0-2.432-0.146-3.647-0.454c-8.042-2.007-12.935-10.151-10.913-18.179
		l22.954-92.786c1.992-8.042,10.137-12.979,18.179-10.913c8.042,2.007,12.935,10.151,10.913,18.179l-22.954,92.786
		C395.893,238.24,389.785,242.781,383.061,242.781z"/>
</g>
<path style="fill:#FCBF29;" d="M361.001,210.995c-25.8,0-51.3,6.599-73.8,19.501L55.205,360.993l-17.1,9.6
	c-23.401,13.5-38.101,38.399-38.101,65.399c0,41.4,33.6,75.999,74.999,75.999H361c82.799,0,150.998-68.199,150.998-150.998
	S443.8,210.995,361.001,210.995z"/>
<path style="fill:#FE9923;" d="M512,360.993c0,82.799-68.199,150.998-150.998,150.998H75.005c-41.4,0-74.999-34.6-74.999-75.999
	c0-27.001,14.7-51.898,38.101-65.399l17.1-9.6H512z"/>
<path style="fill:#57555C;" d="M376.001,270.994c-41.4,0-74.999,33.6-74.999,74.999c0,5.099,0.601,10.201,1.5,15
	c6.901,34.2,37.2,59.999,73.499,59.999s66.598-25.8,73.499-59.999c0.899-4.799,1.5-9.901,1.5-15
	C451,304.594,417.401,270.994,376.001,270.994z"/>
<path style="fill:#787780;" d="M386.5,356.493l-4.499,4.501l-85.5,85.498c-2.699,3.001-6.599,4.501-10.499,4.501h-30
	c-8.401,0-15-6.599-15-15s6.599-15,15-15h23.699l60.299-59.999l25.501-25.499c5.7-6,15.298-6,20.999,0
	C392.5,341.194,392.5,350.793,386.5,356.493z"/>
<path style="fill:#3C3A41;" d="M449.5,360.993c-6.901,34.2-37.2,59.999-73.499,59.999s-66.598-25.8-73.499-59.999H449.5z"/>
<path style="fill:#57555C;" d="M382.001,360.993l-85.5,85.498c-2.699,3.001-6.599,4.501-10.499,4.501h-30c-8.401,0-15-6.599-15-15
	s6.599-15,15-15h23.699l60.299-59.999H382.001z"/>
<path style="fill:#3C3A41;" d="M436.001,149.995h-89.999c-8.291,0-15-6.709-15-15c0-41.353,33.647-74.999,74.999-74.999h30
	c24.814,0,44.999,20.186,44.999,44.999S460.814,149.995,436.001,149.995z"/>
<g>
</g>
<g>
</g>
<g>
</g>
<g>
</g>
<g>
</g>
<g>
</g>
<g>
</g>
<g>
</g>
<g>
</g>
<g>
</g>
<g>
</g>
<g>
</g>
<g>
</g>
<g>
</g>
<g>
</g>
</svg>
