<?xml version="1.0" encoding="iso-8859-1"?>
<!-- Generator: Adobe Illustrator 19.0.0, SVG Export Plug-In . SVG Version: 6.00 Build 0)  -->
<svg version="1.1" id="Capa_1" xmlns="http://www.w3.org/2000/svg" xmlns:xlink="http://www.w3.org/1999/xlink" x="0px" y="0px"
	 viewBox="0 0 511.997 511.997" style="enable-background:new 0 0 511.997 511.997;" xml:space="preserve">
<path style="fill:#FD9133;" d="M465.928,97.111H150.043c-20.971,0-39.055,14.757-43.248,35.304h-60.9
	c-24.369-0.485-44.528,18.879-45.013,43.248s18.879,44.527,43.248,45.013l40.247,127.36c2.48,8.102,9.885,13.689,18.358,13.857
	h351.542c12.33,0,22.33-10,22.33-22.33V184.489c21.597-4.369,36.663-23.989,35.304-45.984
	C509.829,114.772,489.75,96.696,465.928,97.111z"/>
<g>
	<path style="fill:#DB631D;" d="M476.608,194.197h-61.782c-4.872,0-8.826-3.954-8.826-8.826c0-4.872,3.954-8.826,8.826-8.826h61.782
		c4.872,0,8.826,3.954,8.826,8.826C485.434,190.243,481.479,194.197,476.608,194.197z"/>
	<rect x="397.173" y="114.807" style="fill:#DB631D;" width="17.652" height="17.652"/>
	<rect x="432.477" y="132.459" style="fill:#DB631D;" width="17.652" height="17.652"/>
	<rect x="361.869" y="211.805" style="fill:#DB631D;" width="17.652" height="17.652"/>
	<rect x="423.651" y="229.458" style="fill:#DB631D;" width="17.652" height="17.652"/>
	<rect x="388.347" y="273.588" style="fill:#DB631D;" width="17.652" height="17.652"/>
	<rect x="405.999" y="308.98" style="fill:#DB631D;" width="17.652" height="17.652"/>
</g>
<rect y="361.937" style="fill:#8C421C;" width="511.912" height="52.956"/>
<path style="fill:#E5E5E5;" d="M370.695,141.241c0-24.369-19.762-44.13-44.13-44.13H150.043
	c-24.369,0.212-43.954,20.141-43.742,44.51c0.185,21.015,15.163,38.985,35.799,42.956v177.316H335.39V184.489
	C355.938,180.296,370.695,162.221,370.695,141.241z"/>
<g>
	<path style="fill:#FD9133;" d="M151.014,132.415h107.06c18.032,0,34.245,10.98,40.953,27.714l0,0
		c8.164,20.371,0.124,43.654-18.888,54.633l46.425,147.13"/>
	<path style="fill:#FD9133;" d="M151.014,132.415h-60.9c-24.369-0.512-44.545,18.835-45.057,43.204s18.835,44.545,43.204,45.057
		l40.247,127.36c2.533,8.102,9.965,13.68,18.446,13.857h179.61"/>
</g>
<g>
	<path style="fill:#D9D9D9;" d="M106.795,132.415h107.06c18.067-0.035,34.325,10.944,41.041,27.714l0,0
		c8.164,20.371,0.124,43.654-18.888,54.633l46.425,147.13"/>
	<path style="fill:#D9D9D9;" d="M106.795,132.415h-60.9c-24.369-0.485-44.528,18.879-45.013,43.248s18.879,44.527,43.248,45.013
		l40.247,127.36c2.48,8.102,9.885,13.689,18.358,13.857h179.699"/>
</g>
<g>
</g>
<g>
</g>
<g>
</g>
<g>
</g>
<g>
</g>
<g>
</g>
<g>
</g>
<g>
</g>
<g>
</g>
<g>
</g>
<g>
</g>
<g>
</g>
<g>
</g>
<g>
</g>
<g>
</g>
</svg>
