<?xml version="1.0" encoding="iso-8859-1"?>
<!-- Generator: Adobe Illustrator 19.0.0, SVG Export Plug-In . SVG Version: 6.00 Build 0)  -->
<svg version="1.1" id="Capa_1" xmlns="http://www.w3.org/2000/svg" xmlns:xlink="http://www.w3.org/1999/xlink" x="0px" y="0px"
	 viewBox="0 0 512 512" style="enable-background:new 0 0 512 512;" xml:space="preserve">
<path style="fill:#3F7DB8;" d="M339.509,0h62.411c7.115-0.053,12.924,5.685,12.977,12.8c0,0.026,0,0.062,0,0.088v40.077l0,0h-88.276
	l0,0V12.889C326.621,5.774,332.394,0,339.509,0z"/>
<path style="fill:#CFCFCF;" d="M467.862,207.537v-39.812c-0.026-36.467-20.48-69.844-52.966-86.422V61.793h8.828
	c4.873,0,8.828-3.955,8.828-8.828s-3.955-8.828-8.828-8.828H317.793c-4.873,0-8.828,3.955-8.828,8.828s3.955,8.828,8.828,8.828
	h8.828v19.509c-32.486,16.578-52.939,49.955-52.966,86.422v39.812c-0.018,7.053,2.781,13.815,7.768,18.803
	c10.328,10.337,10.328,27.092,0,37.429c-4.97,4.961-7.759,11.697-7.768,18.714v4.502c-0.018,7.053,2.781,13.815,7.768,18.803
	c10.328,10.337,10.328,27.092,0,37.429c-4.97,4.961-7.759,11.697-7.768,18.715v4.502c-0.018,7.053,2.781,13.815,7.768,18.803
	c10.328,10.337,10.328,27.092,0,37.429c-4.97,4.961-7.759,11.697-7.768,18.715v40.783c0,16.481,13.356,29.837,29.837,29.837l0,0
	h134.532c16.481,0,29.837-13.356,29.837-29.837l0,0V441.38c-0.009-7.018-2.798-13.753-7.768-18.714
	c-10.328-10.337-10.328-27.092,0-37.429c4.988-4.988,7.786-11.75,7.768-18.803v-4.502c-0.009-7.018-2.798-13.753-7.768-18.714
	c-10.328-10.337-10.328-27.092,0-37.429c4.988-4.988,7.786-11.75,7.768-18.803v-4.502c-0.009-7.018-2.798-13.753-7.768-18.714
	c-10.328-10.337-10.328-27.092,0-37.429C465.082,221.361,467.88,214.59,467.862,207.537z"/>
<path style="fill:#4398D1;" d="M445.793,150.069c-25.3,11.211-54.148,11.211-79.448,0c-25.3-11.211-54.148-11.211-79.448,0
	l-12.447,5.561c-0.53,4.008-0.803,8.051-0.794,12.094v39.812c-0.018,7.053,2.781,13.815,7.768,18.803
	c10.328,10.337,10.328,27.092,0,37.429c-4.97,4.961-7.759,11.697-7.768,18.714v4.502c-0.018,7.053,2.781,13.815,7.768,18.803
	c10.328,10.337,10.328,27.092,0,37.429c-4.97,4.961-7.759,11.697-7.768,18.715v4.502c-0.018,7.053,2.781,13.815,7.768,18.803
	c10.328,10.337,10.328,27.092,0,37.429l0,0c-4.97,4.961-7.759,11.697-7.768,18.715v40.783c0,16.481,13.356,29.837,29.837,29.837l0,0
	h134.532c16.481,0,29.837-13.356,29.837-29.837l0,0V441.38c-0.009-7.018-2.798-13.753-7.768-18.714l0,0
	c-10.328-10.337-10.328-27.092,0-37.429c4.988-4.988,7.786-11.75,7.768-18.803v-4.502c-0.009-7.018-2.798-13.753-7.768-18.714
	c-10.328-10.337-10.328-27.092,0-37.429c4.988-4.988,7.786-11.75,7.768-18.803v-4.502c-0.009-7.018-2.798-13.753-7.768-18.714
	c-10.328-10.337-10.328-27.092,0-37.429c4.988-4.988,7.786-11.75,7.768-18.803v-39.812c0.009-8.739-1.183-17.443-3.531-25.865
	L445.793,150.069z"/>
<polygon style="fill:#CFCFCF;" points="194.207,512 70.621,512 44.138,282.483 220.69,282.483 "/>
<path style="fill:#4398D1;" d="M135.68,343.747c-24.55-10.946-52.604-10.946-77.153,0l-6.974,3.09L70.621,512h123.586
	l19.509-168.872C189.008,354.587,160.565,354.808,135.68,343.747z"/>
<path style="fill:#E5E5E5;" d="M58.527,343.747c12.138-5.447,25.282-8.271,38.577-8.298v-52.966H44.138l7.415,64.353L58.527,343.747
	z"/>
<path style="fill:#6AA9D4;" d="M58.527,343.747l-6.974,3.09L70.621,512h26.483V335.449C83.809,335.475,70.665,338.3,58.527,343.747z
	"/>
<path style="fill:#4398D1;" d="M353.104,17.656C353.165,8.643,346.43,1.033,337.479,0c-6.294,1.042-10.902,6.506-10.858,12.888
	v31.25h26.483V17.656z"/>
<g>
	<path style="fill:#CFCFCF;" d="M281.424,305.788c-4.988-4.988-7.786-11.75-7.768-18.803l0,0
		C273.638,294.038,276.436,300.809,281.424,305.788c4.97,4.961,7.759,11.697,7.768,18.714
		C289.183,317.484,286.393,310.749,281.424,305.788z"/>
	<path style="fill:#CFCFCF;" d="M281.424,385.236c-4.988-4.988-7.786-11.75-7.768-18.803l0,0
		C273.638,373.487,276.436,380.257,281.424,385.236c4.97,4.961,7.759,11.697,7.768,18.714
		C289.183,396.933,286.393,390.197,281.424,385.236z"/>
	<path style="fill:#CFCFCF;" d="M281.424,226.34c-4.988-4.988-7.786-11.75-7.768-18.803l0,0
		C273.638,214.59,276.436,221.361,281.424,226.34c4.97,4.961,7.759,11.697,7.768,18.714
		C289.183,238.036,286.393,231.301,281.424,226.34z"/>
</g>
<path style="fill:#E5E5E5;" d="M326.621,44.138h-8.828c-4.873,0-8.828,3.955-8.828,8.828s3.955,8.828,8.828,8.828h8.828v19.509
	c-32.486,16.578-52.939,49.955-52.966,86.422c-0.009-4.043,0.265-8.086,0.794-12.094l12.447-5.561
	c20.851-9.225,44.27-10.884,66.207-4.679V44.138H326.621z"/>
<g>
	<path style="fill:#6AA9D4;" d="M289.192,403.951c-0.009,7.018-2.798,13.753-7.768,18.714l0,0
		C286.393,417.704,289.183,410.969,289.192,403.951z"/>
	<path style="fill:#6AA9D4;" d="M273.655,441.38L273.655,441.38c0-5.208,1.536-10.311,4.414-14.654
		C275.191,431.069,273.655,436.171,273.655,441.38z"/>
	<path style="fill:#6AA9D4;" d="M289.192,324.502c-0.009,7.018-2.798,13.753-7.768,18.714c-4.97,4.961-7.759,11.697-7.768,18.715
		l0,0c0.009-7.018,2.798-13.753,7.768-18.714C286.393,338.256,289.183,331.52,289.192,324.502z"/>
	<path style="fill:#6AA9D4;" d="M289.192,245.054c-0.009,7.018-2.798,13.753-7.768,18.714s-7.759,11.697-7.768,18.714l0,0
		c0.009-7.018,2.798-13.753,7.768-18.714C286.393,258.808,289.183,252.072,289.192,245.054z"/>
	<path style="fill:#6AA9D4;" d="M353.104,485.518V145.391c-21.937-6.206-45.356-4.546-66.207,4.679l-12.447,5.561
		c-0.53,4.008-0.803,8.051-0.794,12.094v39.812c-0.018,7.053,2.781,13.815,7.768,18.803c10.328,10.337,10.328,27.092,0,37.429
		c-4.97,4.961-7.759,11.697-7.768,18.714v4.502c-0.018,7.053,2.781,13.815,7.768,18.803c10.328,10.337,10.328,27.092,0,37.429
		c-4.97,4.961-7.759,11.697-7.768,18.715v4.502c-0.018,7.053,2.781,13.815,7.768,18.803c10.328,10.337,10.328,27.092,0,37.429
		c-1.262,1.227-2.383,2.595-3.354,4.061c-2.878,4.343-4.414,9.446-4.414,14.654v40.783c0,16.481,13.356,29.837,29.837,29.837l0,0
		h23.128C341.248,512,353.104,500.145,353.104,485.518L353.104,485.518z"/>
</g>
<g>
</g>
<g>
</g>
<g>
</g>
<g>
</g>
<g>
</g>
<g>
</g>
<g>
</g>
<g>
</g>
<g>
</g>
<g>
</g>
<g>
</g>
<g>
</g>
<g>
</g>
<g>
</g>
<g>
</g>
</svg>
