<?xml version="1.0" encoding="iso-8859-1"?>
<!-- Generator: Adobe Illustrator 19.0.0, SVG Export Plug-In . SVG Version: 6.00 Build 0)  -->
<svg version="1.1" id="Capa_1" xmlns="http://www.w3.org/2000/svg" xmlns:xlink="http://www.w3.org/1999/xlink" x="0px" y="0px"
	 viewBox="0 0 512 512" style="enable-background:new 0 0 512 512;" xml:space="preserve">
<path style="fill:#CFCFCF;" d="M150.069,0h211.862c9.754,0,17.655,7.901,17.655,17.655v35.31l0,0H132.414l0,0v-35.31
	C132.414,7.901,140.314,0,150.069,0z"/>
<path style="fill:#595959;" d="M353.103,79.448V52.966H158.897v26.483l0,0c-48.305,21.486-79.439,69.394-79.448,122.262V476.69
	c0,19.5,15.81,35.31,35.31,35.31h282.483c19.5,0,35.31-15.81,35.31-35.31V201.71C432.543,148.842,401.408,100.935,353.103,79.448z"
	/>
<g>
	<path style="fill:#4F4F4F;" d="M353.103,79.448V52.966h-70.621v26.483c48.305,21.486,79.439,69.394,79.448,122.262V476.69
		c0,19.5-15.81,35.31-35.31,35.31h70.621c19.5,0,35.31-15.81,35.31-35.31V201.71C432.543,148.842,401.408,100.935,353.103,79.448z"
		/>
	<rect x="158.897" y="52.966" style="fill:#4F4F4F;" width="194.207" height="26.483"/>
</g>
<rect x="79.448" y="194.207" style="fill:#DE4C3C;" width="353.103" height="247.172"/>
<polygon style="fill:#FDB62F;" points="317.793,300.138 268.359,300.138 282.483,229.517 194.207,317.793 243.641,317.793 
	229.517,388.414 "/>
<polyline style="fill:#CFCFCF;" points="432.552,406.069 361.931,406.069 361.931,300.138 432.552,300.138 "/>
<g>
	<rect x="388.414" y="361.931" style="fill:#BFBFBF;" width="44.138" height="17.655"/>
	<rect x="388.414" y="326.621" style="fill:#BFBFBF;" width="44.138" height="17.655"/>
</g>
<g>
	<rect x="353.103" y="256" style="fill:#8C421C;" width="79.448" height="17.655"/>
	<rect x="353.103" y="220.69" style="fill:#8C421C;" width="17.655" height="17.655"/>
	<rect x="388.414" y="220.69" style="fill:#8C421C;" width="44.138" height="17.655"/>
</g>
<g>
	<rect x="114.759" y="370.759" style="fill:#CFCFCF;" width="35.31" height="35.31"/>
	<rect x="114.759" y="300.138" style="fill:#CFCFCF;" width="35.31" height="35.31"/>
</g>
<g>
	<rect x="123.586" y="256" style="fill:#8C421C;" width="35.31" height="17.655"/>
	<rect x="105.931" y="220.69" style="fill:#8C421C;" width="52.966" height="17.655"/>
</g>
<path style="fill:#BFBFBF;" d="M361.931,0h-52.966c9.754,0,17.655,7.901,17.655,17.655v35.31h52.966v-35.31
	C379.586,7.901,371.686,0,361.931,0z"/>
<g>
</g>
<g>
</g>
<g>
</g>
<g>
</g>
<g>
</g>
<g>
</g>
<g>
</g>
<g>
</g>
<g>
</g>
<g>
</g>
<g>
</g>
<g>
</g>
<g>
</g>
<g>
</g>
<g>
</g>
</svg>
