<?xml version="1.0" encoding="iso-8859-1"?>
<!-- Generator: Adobe Illustrator 19.0.0, SVG Export Plug-In . SVG Version: 6.00 Build 0)  -->
<svg version="1.1" id="Capa_1" xmlns="http://www.w3.org/2000/svg" xmlns:xlink="http://www.w3.org/1999/xlink" x="0px" y="0px"
	 viewBox="0 0 512 512" style="enable-background:new 0 0 512 512;" xml:space="preserve">
<polygon style="fill:#E5E5E5;" points="361.931,512 203.034,512 167.724,220.69 167.724,123.586 397.241,123.586 397.241,220.69 "/>
<path style="fill:#FDB62F;" d="M387.354,208.772c-33.245,13.321-70.4,13.074-103.459-0.706
	c-34.71-14.477-73.852-14.036-108.226,1.236l-7.945,3.531v7.857L203.034,512h158.897l35.31-291.31V204.8L387.354,208.772z"/>
<path style="fill:#FD7B2F;" d="M189.44,21.539C187.074,9.066,176.181,0.026,163.487,0H26.483v35.31h130.383l16.772,88.276h35.31
	L189.44,21.539z"/>
<path style="fill:#CFCFCF;" d="M208.861,123.586h-35.31l15.272,80.684c11.008-3.558,22.431-5.694,33.986-6.356L208.861,123.586z"/>
<path style="fill:#FD7B2F;" d="M353.103,247.172c-13.895,0-26.977,6.541-35.31,17.655C303.166,245.327,275.5,241.373,256,256
	c-3.346,2.507-6.321,5.482-8.828,8.828c-14.645-19.482-42.319-23.411-61.802-8.757c-4.767,3.584-8.757,8.095-11.732,13.259
	l11.741,97.015V291.31c0-14.627,11.855-26.483,26.483-26.483c14.627,0,26.483,11.855,26.483,26.483V512H256V291.31
	c0-14.627,11.855-26.483,26.483-26.483s26.483,11.855,26.483,26.483V512h17.655V291.31c0-14.627,11.855-26.483,26.483-26.483
	s26.483,11.855,26.483,26.483v75.034l11.741-97.103C383.444,255.585,368.87,247.172,353.103,247.172z"/>
<g>
	<rect x="388.414" y="44.138" style="fill:#FDB62F;" width="17.655" height="158.897"/>
	<g transform="matrix(0.7071 -0.7071 0.7071 0.7071 3.28 35.921)">
		<rect x="207.746" y="261.115" style="fill:#FDB62F;" width="17.655" height="158.897"/>
		<rect x="137.125" y="331.736" style="fill:#FDB62F;" width="158.897" height="17.655"/>
	</g>
	<rect x="317.793" y="114.759" style="fill:#FDB62F;" width="158.897" height="17.655"/>
</g>
<path style="fill:#FD7B2F;" d="M397.241,211.862c-48.755,0-88.276-39.521-88.276-88.276s39.521-88.276,88.276-88.276
	s88.276,39.521,88.276,88.276S445.996,211.862,397.241,211.862z M397.241,52.966c-39,0-70.621,31.62-70.621,70.621
	s31.62,70.621,70.621,70.621s70.621-31.62,70.621-70.621S436.242,52.966,397.241,52.966z"/>
<g>
</g>
<g>
</g>
<g>
</g>
<g>
</g>
<g>
</g>
<g>
</g>
<g>
</g>
<g>
</g>
<g>
</g>
<g>
</g>
<g>
</g>
<g>
</g>
<g>
</g>
<g>
</g>
<g>
</g>
</svg>
