<?xml version="1.0" encoding="iso-8859-1"?>
<!-- Generator: Adobe Illustrator 19.0.0, SVG Export Plug-In . SVG Version: 6.00 Build 0)  -->
<svg version="1.1" id="Capa_1" xmlns="http://www.w3.org/2000/svg" xmlns:xlink="http://www.w3.org/1999/xlink" x="0px" y="0px"
	 viewBox="0 0 512 512" style="enable-background:new 0 0 512 512;" xml:space="preserve">
<path style="fill:#CFCFCF;" d="M450.207,52.966v-35.31C450.207,7.901,442.306,0,432.552,0H291.31
	c-9.754,0-17.655,7.901-17.655,17.655v35.31l-61.793,79.448V512H512V132.414L450.207,52.966z"/>
<polygon style="fill:#E5E5E5;" points="388.414,512 211.862,512 211.862,132.414 273.655,52.966 450.207,52.966 388.414,132.414 "/>
<path style="fill:#CFCFCF;" d="M291.31,0h141.241c9.754,0,17.655,7.901,17.655,17.655v35.31l0,0H273.655l0,0v-35.31
	C273.655,7.901,281.556,0,291.31,0z"/>
<g>
	<ellipse style="fill:#4398D1;" cx="317.793" cy="97.103" rx="26.483" ry="17.655"/>
	<path style="fill:#4398D1;" d="M388.414,361.931L388.414,361.931c-17.284,11.502-37.588,17.646-58.35,17.655h-58.086
		c-16.305-0.009-32.388,3.796-46.963,11.123l-13.153,6.532V211.862l0,0c23.208-11.635,48.808-17.673,74.77-17.655h27.012
		c25.962,0.018,51.562-6.02,74.77-17.655l0,0L388.414,361.931L388.414,361.931z"/>
</g>
<path style="fill:#FFFFFF;" d="M300.138,335.448L300.138,335.448c-18.088,0.009-32.759-14.645-32.768-32.733
	c0-5.094,1.183-10.116,3.46-14.671l29.308-58.527l29.308,58.527c8.095,16.172,1.545,35.849-14.636,43.944
	C310.254,334.265,305.231,335.448,300.138,335.448z"/>
<g>
	<rect x="256" y="423.724" style="fill:#4398D1;" width="88.276" height="17.655"/>
	<rect x="256" y="459.034" style="fill:#4398D1;" width="88.276" height="17.655"/>
</g>
<g>
	<rect x="414.897" y="167.724" style="fill:#BFBFBF;" width="70.621" height="17.655"/>
	<rect x="414.897" y="203.034" style="fill:#BFBFBF;" width="17.655" height="17.655"/>
	<rect x="450.207" y="203.034" style="fill:#BFBFBF;" width="35.31" height="17.655"/>
	<rect x="414.897" y="238.345" style="fill:#BFBFBF;" width="70.621" height="17.655"/>
	<rect x="467.862" y="273.655" style="fill:#BFBFBF;" width="17.655" height="17.655"/>
	<rect x="414.897" y="273.655" style="fill:#BFBFBF;" width="35.31" height="17.655"/>
	<rect x="423.724" y="441.379" style="fill:#BFBFBF;" width="52.966" height="35.31"/>
	<rect x="414.897" y="397.241" style="fill:#BFBFBF;" width="70.621" height="17.655"/>
	<rect x="414.897" y="361.931" style="fill:#BFBFBF;" width="70.621" height="17.655"/>
</g>
<polygon style="fill:#CFCFCF;" points="141.241,512 17.655,512 0,264.828 158.897,264.828 "/>
<path style="fill:#E5E5E5;" d="M146.803,342.422c-20.718,6.912-43.185,6.506-63.647-1.148c-24.867-9.375-52.515-7.936-76.27,3.972
	l-1.059,0.53L17.655,512h123.586l12.27-171.785L146.803,342.422z"/>
<g>
</g>
<g>
</g>
<g>
</g>
<g>
</g>
<g>
</g>
<g>
</g>
<g>
</g>
<g>
</g>
<g>
</g>
<g>
</g>
<g>
</g>
<g>
</g>
<g>
</g>
<g>
</g>
<g>
</g>
</svg>
