<?xml version="1.0" encoding="iso-8859-1"?>
<!-- Generator: Adobe Illustrator 19.0.0, SVG Export Plug-In . SVG Version: 6.00 Build 0)  -->
<svg version="1.1" id="Capa_1" xmlns="http://www.w3.org/2000/svg" xmlns:xlink="http://www.w3.org/1999/xlink" x="0px" y="0px"
	 viewBox="0 0 512 512" style="enable-background:new 0 0 512 512;" xml:space="preserve">
<path style="fill:#ED61B5;" d="M498.759,414.897V97.103C498.759,43.476,455.283,0,401.655,0H207.448
	c53.628,0,97.103,43.476,97.103,97.103v317.793c0,53.628-43.476,97.103-97.103,97.103h194.207
	C455.283,512,498.759,468.524,498.759,414.897z"/>
<path style="fill:#CF408C;" d="M207.448,414.897V97.103c0.018-34.675,18.529-66.701,48.552-84.039
	C241.24,4.52,224.494,0.018,207.448,0h-97.103C56.717,0,13.241,43.476,13.241,97.103v317.793c0,53.628,43.476,97.103,97.103,97.103
	h97.103c17.046-0.018,33.792-4.52,48.552-13.065C225.977,481.598,207.466,449.571,207.448,414.897z"/>
<rect x="304.552" y="114.759" style="fill:#4398D1;" width="194.207" height="264.828"/>
<g>
	<path style="fill:#CF408C;" d="M463.448,459.034H339.862c-4.873,0-8.828-3.955-8.828-8.828v-35.31c0-4.873,3.955-8.828,8.828-8.828
		h123.586c4.873,0,8.828,3.955,8.828,8.828v35.31C472.276,455.08,468.321,459.034,463.448,459.034z M348.69,441.379h105.931v-17.655
		H348.69V441.379z"/>
	<rect x="392.828" y="414.897" style="fill:#CF408C;" width="17.655" height="35.31"/>
</g>
<g>
	<path style="fill:#BF356F;" d="M163.31,423.724H92.69c-4.873,0-8.828-3.955-8.828-8.828v-35.31c0-4.873,3.955-8.828,8.828-8.828
		h70.621c4.873,0,8.828,3.955,8.828,8.828v35.31C172.138,419.769,168.183,423.724,163.31,423.724z M101.517,406.069h52.966v-17.655
		h-52.966V406.069z"/>
	<path style="fill:#BF356F;" d="M163.31,388.414H92.69c-4.873,0-8.828-3.955-8.828-8.828v-35.31c0-4.873,3.955-8.828,8.828-8.828
		h70.621c4.873,0,8.828,3.955,8.828,8.828v35.31C172.138,384.459,168.183,388.414,163.31,388.414z M101.517,370.759h52.966v-17.655
		h-52.966V370.759z"/>
	<rect x="13.241" y="370.759" style="fill:#BF356F;" width="194.207" height="17.655"/>
</g>
<path style="fill:#DE4C3C;" d="M348.072,250.968l52.966,52.966l52.966-52.966c10.152-10.108,11.07-26.244,2.119-37.429l0,0
	c-9.746-12.12-27.463-14.054-39.592-4.317c-0.786,0.636-1.536,1.306-2.251,2.022l-13.065,13.153l-13.153-13.153
	c-10.964-10.964-28.734-10.964-39.698,0c-0.724,0.724-1.412,1.492-2.057,2.295l0,0C337.267,224.644,338.026,240.764,348.072,250.968
	z"/>
<path style="fill:#FF82CD;" d="M216.276,0H101.517C52.762,0,13.241,39.521,13.241,88.276v335.448
	c0,48.755,39.521,88.276,88.276,88.276h114.759c48.755,0,88.276-39.521,88.276-88.276V88.276C304.552,39.521,265.031,0,216.276,0z
	 M269.241,423.724c0,29.255-23.711,52.966-52.965,52.966H101.517c-29.255,0-52.966-23.711-52.966-52.966V88.276
	c0-29.255,23.711-52.966,52.966-52.966h114.759c29.255,0,52.965,23.711,52.965,52.966V423.724z"/>
<polygon style="fill:#6AA9D4;" points="498.759,114.759 304.552,114.759 304.552,379.586 307.906,379.586 498.759,118.025 "/>
<path style="fill:#DE4C3C;" d="M400.949,303.845l52.966-52.965c11.034-10.814,11.22-28.531,0.397-39.574
	c-4.626-4.723-10.77-7.654-17.346-8.271l-57.821,79.448L400.949,303.845z"/>
<path style="fill:#DE786D;" d="M414.014,211.244l-13.065,13.153l-13.153-13.153c-10.964-10.964-28.734-10.964-39.698,0
	c-0.724,0.724-1.412,1.492-2.057,2.295l0,0c-8.969,11.167-8.095,27.295,2.03,37.429l31.073,31.514l57.821-79.448
	C428.465,202.169,420.034,205.188,414.014,211.244z"/>
<g>
</g>
<g>
</g>
<g>
</g>
<g>
</g>
<g>
</g>
<g>
</g>
<g>
</g>
<g>
</g>
<g>
</g>
<g>
</g>
<g>
</g>
<g>
</g>
<g>
</g>
<g>
</g>
<g>
</g>
</svg>
