<?xml version="1.0" encoding="iso-8859-1"?>
<!-- Generator: Adobe Illustrator 19.0.0, SVG Export Plug-In . SVG Version: 6.00 Build 0)  -->
<svg version="1.1" id="Capa_1" xmlns="http://www.w3.org/2000/svg" xmlns:xlink="http://www.w3.org/1999/xlink" x="0px" y="0px"
	 viewBox="0 0 512 512" style="enable-background:new 0 0 512 512;" xml:space="preserve">
<rect y="44.138" style="fill:#E5E5E5;" width="397.241" height="388.414"/>
<g>
	<polygon style="fill:#D9D9D9;" points="397.241,105.931 70.621,432.552 397.241,432.552 	"/>
	<rect y="370.759" style="fill:#D9D9D9;" width="397.241" height="61.793"/>
</g>
<path style="fill:#BFBFBF;" d="M397.241,132.414v-17.655H0v17.655h70.621v61.793H0v17.655h70.621v61.793H0v17.655h70.621v61.793H0
	v17.655h397.241v-17.655h-70.621V291.31h70.621v-17.655h-70.621v-61.793h70.621v-17.655h-70.621v-61.793H397.241z M150.069,353.103
	H88.276V291.31h61.793V353.103z M150.069,273.655H88.276v-61.793h61.793V273.655z M88.276,194.207v-61.793h61.793v61.793H88.276z
	 M229.517,353.103h-61.793V291.31h61.793V353.103z M229.517,273.655h-61.793v-61.793h61.793V273.655z M167.724,194.207v-61.793
	h61.793v61.793H167.724z M308.966,353.103h-61.793V291.31h61.793V353.103z M308.966,273.655h-61.793v-61.793h61.793V273.655z
	 M308.966,194.207h-61.793v-61.793h61.793V194.207z"/>
<rect y="44.138" style="fill:#DE4C3C;" width="397.241" height="70.621"/>
<g>
	<rect x="229.517" y="17.655" style="fill:#595959;" width="17.655" height="52.966"/>
	<rect x="150.069" y="17.655" style="fill:#595959;" width="17.655" height="52.966"/>
	<rect x="70.621" y="17.655" style="fill:#595959;" width="17.655" height="52.966"/>
	<rect x="308.966" y="17.655" style="fill:#595959;" width="17.655" height="52.966"/>
</g>
<rect y="388.414" style="fill:#BFBFBF;" width="397.241" height="17.655"/>
<g>
	<rect x="441.379" y="335.448" style="fill:#4398D1;" width="70.621" height="158.897"/>
	<rect x="194.207" y="335.448" style="fill:#4398D1;" width="70.621" height="158.897"/>
</g>
<rect x="264.828" y="388.414" style="fill:#3F7DB8;" width="176.552" height="52.966"/>
<g>
	<rect x="441.379" y="414.897" style="fill:#3E8CC7;" width="70.621" height="79.448"/>
	<rect x="194.207" y="414.897" style="fill:#3E8CC7;" width="70.621" height="79.448"/>
</g>
<g>
</g>
<g>
</g>
<g>
</g>
<g>
</g>
<g>
</g>
<g>
</g>
<g>
</g>
<g>
</g>
<g>
</g>
<g>
</g>
<g>
</g>
<g>
</g>
<g>
</g>
<g>
</g>
<g>
</g>
</svg>
