<?xml version="1.0" encoding="iso-8859-1"?>
<!-- Generator: Adobe Illustrator 19.0.0, SVG Export Plug-In . SVG Version: 6.00 Build 0)  -->
<svg version="1.1" id="Capa_1" xmlns="http://www.w3.org/2000/svg" xmlns:xlink="http://www.w3.org/1999/xlink" x="0px" y="0px"
	 viewBox="0 0 511.991 511.991" style="enable-background:new 0 0 511.991 511.991;" xml:space="preserve">
<path style="fill:#77A226;" d="M464.001,148.254h-39.244l56.685-56.685c16.683-17.032,16.413-44.363-0.619-61.046
	c-16.788-16.447-43.648-16.447-60.427,0l-56.685,56.685V47.965C363.711,21.471,342.241,0,315.747,0s-47.965,21.471-47.965,47.965
	v95.929c0-26.494-21.471-47.965-47.965-47.965s-47.965,21.471-47.965,47.965v95.929c0-26.494-21.471-47.965-47.965-47.965
	s-47.965,21.471-47.965,47.965v196.219h196.219c26.494,0,47.965-21.471,47.965-47.965c0-26.494-21.471-47.965-47.965-47.965h95.929
	c26.494,0,47.965-21.471,47.965-47.965s-21.471-47.965-47.965-47.965h95.929c26.494,0,47.965-21.471,47.965-47.965
	S490.495,148.254,464.001,148.254z"/>
<g>
	
		<rect x="-75.084" y="300.886" transform="matrix(-0.7071 0.7071 -0.7071 -0.7071 564.461 385.4059)" style="fill:#5A821E;" width="554.988" height="17.441"/>
	<path style="fill:#5A821E;" d="M424.757,200.579h-104.65c-4.814,0-8.721-3.907-8.721-8.721V87.208h17.442v95.929h95.929V200.579z"
		/>
	<path style="fill:#5A821E;" d="M328.828,296.508h-104.65c-4.814,0-8.721-3.907-8.721-8.721v-104.65h17.442v95.929h95.929V296.508z"
		/>
	<path style="fill:#5A821E;" d="M241.62,383.717H136.97c-4.814,0-8.721-3.907-8.721-8.721v-104.65h17.442v95.929h95.929V383.717z"/>
</g>
<g>
</g>
<g>
</g>
<g>
</g>
<g>
</g>
<g>
</g>
<g>
</g>
<g>
</g>
<g>
</g>
<g>
</g>
<g>
</g>
<g>
</g>
<g>
</g>
<g>
</g>
<g>
</g>
<g>
</g>
</svg>
