<?xml version="1.0" encoding="iso-8859-1"?>
<!-- Generator: Adobe Illustrator 19.0.0, SVG Export Plug-In . SVG Version: 6.00 Build 0)  -->
<svg version="1.1" id="Capa_1" xmlns="http://www.w3.org/2000/svg" xmlns:xlink="http://www.w3.org/1999/xlink" x="0px" y="0px"
	 viewBox="0 0 512 512" style="enable-background:new 0 0 512 512;" xml:space="preserve">
<g>
	<path style="fill:#F2BB80;" d="M176.552,326.621H79.448L0,282.483V220.69L52.966,97.103h88.276l-8.828,44.138H88.276l0,0
		l-8.828,97.103l0,0c0-24.373,19.765-44.138,44.138-44.138l0,0c9.816-0.026,19.279,3.663,26.483,10.328l26.483,24.982V326.621z"/>
	<path style="fill:#F2BB80;" d="M335.448,326.621h97.103L512,282.483V220.69L459.034,97.103h-88.276l8.828,44.138h44.138l0,0
		l8.828,97.103l0,0c0-24.373-19.765-44.138-44.138-44.138l0,0c-9.816-0.026-19.279,3.663-26.483,10.328l-26.483,24.982V326.621z"/>
</g>
<g>
	<path style="fill:#E39D54;" d="M141.241,282.483H108.05c-11.785,0.062-23.005-5.032-30.72-13.948
		c-3.01-3.257-2.807-8.342,0.45-11.352c0.503-0.459,1.068-0.865,1.668-1.183l1.412-0.706c3.407-1.624,7.495-0.715,9.887,2.207
		c4.387,4.758,10.567,7.442,17.037,7.415h33.457V282.483z"/>
	<path style="fill:#E39D54;" d="M403.95,282.483h-33.192v-17.655h33.192c6.471,0.026,12.65-2.657,17.037-7.415
		c2.392-2.922,6.479-3.831,9.887-2.207l1.677,0.794c3.981,1.96,5.614,6.78,3.655,10.752c-0.335,0.68-0.768,1.306-1.271,1.871
		C427.149,277.575,415.815,282.642,403.95,282.483z"/>
</g>
<path style="fill:#DE4C3C;" d="M256,414.897L144.949,300.138c-22.237-22.89-23.755-58.827-3.531-83.509l0,0
	c21.884-26.88,61.414-30.932,88.302-9.048c1.651,1.342,3.24,2.772,4.74,4.281L256,233.578l21.539-21.716
	c24.488-24.541,64.23-24.576,88.761-0.088c1.571,1.571,3.063,3.222,4.458,4.943l0,0c20.224,24.682,18.706,60.619-3.531,83.509
	L256,414.897z"/>
<path style="fill:#CF4737;" d="M370.759,216.717c-4.22-5.164-9.225-9.631-14.83-13.241c11.202,23.658,6.603,51.774-11.564,70.621
	L231.989,390.091L256,414.897l111.051-114.759C389.288,277.31,390.885,241.434,370.759,216.717z"/>
<g>
	<path style="fill:#8C421C;" d="M256,337.567c-12.279,0.053-24.073-4.811-32.75-13.506c-3.46-3.46-3.46-9.075,0-12.535
		c3.46-3.46,9.075-3.46,12.535,0c11.282,10.876,29.149,10.876,40.43,0c3.46-3.46,9.075-3.46,12.535,0c3.46,3.46,3.46,9.075,0,12.535
		C280.073,332.756,268.279,337.62,256,337.567z"/>
	<path style="fill:#8C421C;" d="M198.621,282.483c-7.309,0-13.241-5.932-13.241-13.241c0-7.309,5.932-13.241,13.241-13.241
		c7.309,0,13.241,5.932,13.241,13.241C211.862,276.551,205.93,282.483,198.621,282.483z"/>
	<path style="fill:#8C421C;" d="M313.379,282.483c-7.309,0-13.241-5.932-13.241-13.241c0-7.309,5.932-13.241,13.241-13.241
		s13.241,5.932,13.241,13.241C326.621,276.551,320.689,282.483,313.379,282.483z"/>
</g>
<g>
</g>
<g>
</g>
<g>
</g>
<g>
</g>
<g>
</g>
<g>
</g>
<g>
</g>
<g>
</g>
<g>
</g>
<g>
</g>
<g>
</g>
<g>
</g>
<g>
</g>
<g>
</g>
<g>
</g>
</svg>
