<?xml version="1.0" encoding="iso-8859-1"?>
<!-- Generator: Adobe Illustrator 19.0.0, SVG Export Plug-In . SVG Version: 6.00 Build 0)  -->
<svg version="1.1" id="Capa_1" xmlns="http://www.w3.org/2000/svg" xmlns:xlink="http://www.w3.org/1999/xlink" x="0px" y="0px"
	 viewBox="0 0 511.996 511.996" style="enable-background:new 0 0 511.996 511.996;" xml:space="preserve">
<path style="fill:#4398D1;" d="M465.951,246.295l-121.552-25.581l-141.134-88.209L139.93,180.05
	c-18.833,14.113-45.533,10.285-59.647-8.539c-1.87-2.496-3.467-5.196-4.746-8.045l-6.88-15.26
	c-4.507-9.774-16.089-14.043-25.863-9.535c-4.693,2.161-8.336,6.104-10.126,10.947L6.647,220.714
	c-4.102,11.317-6.219,23.252-6.263,35.284c-0.512,5.866-0.512,11.776,0,17.642l125.433,13.231
	c27.989,2.902,55.51,9.244,81.946,18.877l0,0c37.859,13.761,77.827,20.808,118.112,20.817h186.121v-23.552
	C511.96,275.607,492.766,251.958,465.951,246.295z"/>
<path style="fill:#E2E2E2;" d="M0.384,326.565L0.384,326.565c0,29.232,23.693,52.925,52.925,52.925H459.07
	c29.232,0,52.925-23.693,52.925-52.925H0.384z"/>
<polygon style="fill:#FDB62F;" points="141.518,211.893 265.011,211.893 265.011,238.356 353.219,273.64 220.906,273.64 
	220.906,247.177 "/>
<path style="fill:#6AA9D4;" d="M282.652,326.565H0.384V273.64l125.433,13.231c27.989,2.902,55.51,9.244,81.946,18.877l0,0
	c37.859,13.761,77.827,20.808,118.112,20.817H282.652z"/>
<g>
	<path style="fill:#CFCFCF;" d="M35.667,353.028v23.375c5.663,2.02,11.626,3.07,17.642,3.087v-26.463H35.667z"/>
	<path style="fill:#CFCFCF;" d="M459.07,353.028v26.463c6.016-0.018,11.979-1.067,17.642-3.087v-23.375H459.07z"/>
	<rect x="406.11" y="353.01" style="fill:#CFCFCF;" width="17.642" height="26.463"/>
	<rect x="353.184" y="353.01" style="fill:#CFCFCF;" width="17.642" height="26.463"/>
	<rect x="300.259" y="353.01" style="fill:#CFCFCF;" width="17.642" height="26.463"/>
	<rect x="247.333" y="353.01" style="fill:#CFCFCF;" width="17.642" height="26.463"/>
	<rect x="194.408" y="353.01" style="fill:#CFCFCF;" width="17.642" height="26.463"/>
	<rect x="141.483" y="353.01" style="fill:#CFCFCF;" width="17.642" height="26.463"/>
	<rect x="88.557" y="353.01" style="fill:#CFCFCF;" width="17.642" height="26.463"/>
</g>
<rect x="0.384" y="317.726" style="fill:#FD9133;" width="511.612" height="17.642"/>
<g>
</g>
<g>
</g>
<g>
</g>
<g>
</g>
<g>
</g>
<g>
</g>
<g>
</g>
<g>
</g>
<g>
</g>
<g>
</g>
<g>
</g>
<g>
</g>
<g>
</g>
<g>
</g>
<g>
</g>
</svg>
