<?xml version="1.0" encoding="iso-8859-1"?>
<!-- Generator: Adobe Illustrator 19.0.0, SVG Export Plug-In . SVG Version: 6.00 Build 0)  -->
<svg version="1.1" id="Capa_1" xmlns="http://www.w3.org/2000/svg" xmlns:xlink="http://www.w3.org/1999/xlink" x="0px" y="0px"
	 viewBox="0 0 511.986 511.986" style="enable-background:new 0 0 511.986 511.986;" xml:space="preserve">
<path id="SVGCleanerId_0" style="fill:#FD9133;" d="M459.42,52.796C401.414-5.21,317.403-16.758,273.326,27.319l-85.774,85.774
	c-29.752,29.77-46.466,70.136-46.457,112.22v63.736c-0.009,18.68-7.431,36.593-20.628,49.807l-72.639,72.639
	c-7.484-4.937-16.749-6.391-25.388-3.967c-10.772,2.971-19.059,11.592-21.598,22.479c-3.94,16.626,6.338,33.305,22.964,37.245
	c2.327,0.555,4.707,0.829,7.096,0.837c8.242,0.176,16.194-3.006,22.039-8.815l0,0c-11.927,12.174-11.725,31.709,0.45,43.628
	c12.174,11.927,31.709,11.725,43.628-0.45c5.607-5.721,8.771-13.399,8.815-21.413c0.026-6.03-1.754-11.918-5.113-16.926
	l72.639-72.639c13.258-13.1,31.163-20.425,49.807-20.364h63.736c42.085,0.009,82.451-16.705,112.22-46.457l85.774-85.774
	C528.973,194.812,517.425,110.801,459.42,52.796z"/>
<g>
	<path id="SVGCleanerId_0_1_" style="fill:#FD9133;" d="M459.42,52.796C401.414-5.21,317.403-16.758,273.326,27.319l-85.774,85.774
		c-29.752,29.77-46.466,70.136-46.457,112.22v63.736c-0.009,18.68-7.431,36.593-20.628,49.807l-72.639,72.639
		c-7.484-4.937-16.749-6.391-25.388-3.967c-10.772,2.971-19.059,11.592-21.598,22.479c-3.94,16.626,6.338,33.305,22.964,37.245
		c2.327,0.555,4.707,0.829,7.096,0.837c8.242,0.176,16.194-3.006,22.039-8.815l0,0c-11.927,12.174-11.725,31.709,0.45,43.628
		c12.174,11.927,31.709,11.725,43.628-0.45c5.607-5.721,8.771-13.399,8.815-21.413c0.026-6.03-1.754-11.918-5.113-16.926
		l72.639-72.639c13.258-13.1,31.163-20.425,49.807-20.364h63.736c42.085,0.009,82.451-16.705,112.22-46.457l85.774-85.774
		C528.973,194.812,517.425,110.801,459.42,52.796z"/>
</g>
<path style="fill:#E5E5E5;" d="M47.827,411.495c-7.484-4.937-16.749-6.391-25.388-3.967c-10.772,2.971-19.059,11.592-21.598,22.479
	c-3.94,16.626,6.338,33.305,22.964,37.245c2.327,0.555,4.707,0.829,7.096,0.837c8.242,0.176,16.194-3.006,22.039-8.815l0,0
	c-11.927,12.174-11.725,31.709,0.45,43.628c12.174,11.927,31.709,11.725,43.628-0.45c5.607-5.721,8.771-13.399,8.815-21.413
	c0.026-6.03-1.754-11.918-5.113-16.926l49.19-48.926l-52.893-52.893L47.827,411.495z"/>
<ellipse transform="matrix(-0.7071 -0.7071 0.7071 -0.7071 553.113 495.3302)" style="fill:#DE4C3C;" cx="379.143" cy="133.112" rx="149.596" ry="113.63"/>
<ellipse transform="matrix(-0.7071 -0.7071 0.7071 -0.7071 563.7621 490.9085)" style="fill:#E5E5E5;" cx="383.552" cy="128.695" rx="44.694" ry="33.939"/>
<path style="fill:#8C421C;" d="M365.624,256.52h-48.22v-26.446c-6.206-4.725-12.095-9.847-17.631-15.339v41.785h-44.077v-44.077
	h42.226c-5.492-5.536-10.614-11.425-15.339-17.631h-26.887v-48.22c-12.271-29.972-12.271-63.559,0-93.532v-8.11l-17.631,17.631
	v70.523h-44.077v-26.446l-6.435,6.435c-3.941,3.985-7.678,8.163-11.196,12.518v7.493h-5.554
	c-4.082,5.633-7.793,11.522-11.107,17.631h16.661v44.077h-32.264c-1.102,5.827-1.895,11.716-2.38,17.631h34.645v44.077h-35.262
	v17.631h35.262v44.077h-41.697c-2.821,6.409-6.594,12.359-11.196,17.631l0,0h52.893v52.893c5.289-4.663,11.222-8.525,17.631-11.46
	v-41.433h44.077v35.262h17.631v-35.262h44.077v34.645c5.915-0.485,11.804-1.278,17.631-2.38v-32.264h44.077v16.661
	c6.109-3.315,11.998-7.026,17.631-11.107v-5.554h7.493c4.355-3.517,8.533-7.255,12.518-11.196l6.435-6.435h-26.446v-44.077h70.523
	l17.631-17.631h-8.11C429.183,268.791,395.587,268.791,365.624,256.52z M238.064,318.228h-44.077v-44.077h44.077V318.228z
	 M238.064,256.52h-44.077v-44.077h44.077V256.52z M238.064,194.812h-44.077v-44.077h44.077V194.812z M299.772,318.228h-44.077
	v-44.077h44.077V318.228z M361.48,318.228h-44.077v-44.077h44.077V318.228z"/>
<g>
</g>
<g>
</g>
<g>
</g>
<g>
</g>
<g>
</g>
<g>
</g>
<g>
</g>
<g>
</g>
<g>
</g>
<g>
</g>
<g>
</g>
<g>
</g>
<g>
</g>
<g>
</g>
<g>
</g>
</svg>
