<?xml version="1.0" encoding="iso-8859-1"?>
<!-- Generator: Adobe Illustrator 19.0.0, SVG Export Plug-In . SVG Version: 6.00 Build 0)  -->
<svg version="1.1" id="Capa_1" xmlns="http://www.w3.org/2000/svg" xmlns:xlink="http://www.w3.org/1999/xlink" x="0px" y="0px"
	 viewBox="0 0 512 512" style="enable-background:new 0 0 512 512;" xml:space="preserve">
<path style="fill:#4398D1;" d="M399.511,200.739l16.243-77.153h-56.85l-6.974,41.754c-59.983-32.203-132.105-32.203-192.088,0
	l-6.974-41.754h-56.85l16.243,77.153c-79.342,79.236-79.431,207.793-0.194,287.135c8.916,8.925,18.644,17.002,29.06,24.126h229.517
	c92.637-63.179,116.524-189.493,53.345-282.138c-7.115-10.434-15.192-20.189-24.126-29.122H399.511z"/>
<path style="fill:#E5E5E5;" d="M148.013,94.102c-3.222-19.235,9.763-37.438,28.999-40.651c1.916-0.318,3.849-0.486,5.782-0.486
	h146.185c19.5,0.026,35.293,15.854,35.266,35.354c0,1.933-0.168,3.866-0.486,5.782l-4.855,29.484h56.85l3.796-17.655
	c5.411-25.803-1.077-52.683-17.655-73.181l0,0C385.334,12.094,360.308,0.053,333.834,0H177.939c-26.386,0-51.359,11.9-67.972,32.397
	l0,0C93.388,52.895,86.9,79.775,92.311,105.578l3.796,17.655h56.85L148.013,94.102z"/>
<path style="fill:#C7C7C7;" d="M176.438,335.448h-17.655c0-53.628,43.476-97.103,97.103-97.103V256
	C212.004,256,176.438,291.566,176.438,335.448z"/>
<path style="fill:#3E8CC7;" d="M399.511,200.739l16.243-77.153h-21.716c-11.52,55.808-37.588,107.582-75.564,150.069
	c34.966,33.977,35.761,89.865,1.783,124.831s-89.865,35.761-124.831,1.783c-5.544-5.385-10.355-11.476-14.31-18.123
	c-34.631,19.597-70.656,36.626-107.785,50.935c15.395,31.726,38.753,58.915,67.796,78.919h229.517
	c92.637-63.179,116.524-189.493,53.345-282.138c-7.115-10.434-15.192-20.189-24.126-29.122L399.511,200.739z"/>
<path style="fill:#C7C7C7;" d="M255.886,432.552v-17.655c43.882,0,79.448-35.566,79.448-79.448h17.655
	C352.99,389.076,309.514,432.552,255.886,432.552z"/>
<g>
</g>
<g>
</g>
<g>
</g>
<g>
</g>
<g>
</g>
<g>
</g>
<g>
</g>
<g>
</g>
<g>
</g>
<g>
</g>
<g>
</g>
<g>
</g>
<g>
</g>
<g>
</g>
<g>
</g>
</svg>
