<?xml version="1.0" encoding="iso-8859-1"?>
<!-- Generator: Adobe Illustrator 19.0.0, SVG Export Plug-In . SVG Version: 6.00 Build 0)  -->
<svg version="1.1" id="Capa_1" xmlns="http://www.w3.org/2000/svg" xmlns:xlink="http://www.w3.org/1999/xlink" x="0px" y="0px"
	 viewBox="0 0 512 512" style="enable-background:new 0 0 512 512;" xml:space="preserve">
<polygon style="fill:#E5E5E5;" points="400.228,161.037 400.228,66.461 185.283,66.461 211.076,109.45 211.076,161.037 
	176.685,255.613 211.076,444.765 400.228,444.765 434.62,255.613 "/>
<path style="fill:#FDB62F;" d="M392.92,194.913c-28.02,11.177-59.583,9.191-85.978-5.417c-22.87-12.725-49.807-16.001-75.059-9.114
	l-30.866,8.598l-24.332,66.633l34.391,189.152h189.152l34.391-189.152l-24.59-67.579L392.92,194.913z"/>
<polyline style="fill:#E5E5E5;" points="400.228,109.45 486.207,109.45 512,135.244 503.402,290.004 469.011,290.004 
	469.011,152.439 400.228,152.439 "/>
<rect x="245.468" y="109.45" style="fill:#CFCFCF;" width="154.761" height="17.196"/>
<polygon style="fill:#E5E5E5;" points="133.696,444.765 30.522,444.765 13.327,221.222 150.892,221.222 "/>
<g>
	<path style="fill:#FD7B2F;" d="M322.848,418.972c-37.985,0-68.783-30.797-68.783-68.783s30.797-68.783,68.783-68.783
		s68.783,30.797,68.783,68.783S360.833,418.972,322.848,418.972z M322.848,298.602c-28.493,0-51.587,23.094-51.587,51.587
		s23.094,51.587,51.587,51.587c28.493,0,51.587-23.094,51.587-51.587S351.341,298.602,322.848,298.602z"/>
	<rect x="314.25" y="290.004" style="fill:#FD7B2F;" width="17.196" height="120.369"/>
	<rect x="262.663" y="341.591" style="fill:#FD7B2F;" width="120.369" height="17.196"/>
	<g transform="matrix(0.7071 -0.7071 0.7071 0.7071 -17.8 38.483)">
		<rect x="11.894" y="401.107" style="fill:#FD7B2F;" width="17.196" height="120.369"/>
		<rect x="-39.692" y="452.694" style="fill:#FD7B2F;" width="120.369" height="17.196"/>
	</g>
	<path style="fill:#FD7B2F;" d="M73.511,445.539L48.148,165.938L0,133.782l9.458-14.272l51.587,34.391
		c2.192,1.427,3.611,3.766,3.869,6.362l25.793,283.728L73.511,445.539z"/>
</g>
<path style="fill:#FDB62F;" d="M144.443,280.719c-18.012,5.958-37.581,5.133-55.026-2.321c-20.97-9.028-44.846-8.331-65.257,1.892
	l-6.018,3.009l12.381,161.467h103.174l12.639-164.734L144.443,280.719z"/>
<g>
	<polygon style="fill:#FDCA6A;" points="73.511,445.539 82.109,444.765 73.511,444.765 	"/>
	<path style="fill:#FDCA6A;" d="M75.231,273.926c-5.649-1.195-11.418-1.771-17.196-1.72l15.476,172.558h8.598l8.598-0.774
		L75.231,273.926z"/>
</g>
<g>
</g>
<g>
</g>
<g>
</g>
<g>
</g>
<g>
</g>
<g>
</g>
<g>
</g>
<g>
</g>
<g>
</g>
<g>
</g>
<g>
</g>
<g>
</g>
<g>
</g>
<g>
</g>
<g>
</g>
</svg>
