<?xml version="1.0" encoding="iso-8859-1"?>
<!-- Generator: Adobe Illustrator 19.0.0, SVG Export Plug-In . SVG Version: 6.00 Build 0)  -->
<svg version="1.1" id="Capa_1" xmlns="http://www.w3.org/2000/svg" xmlns:xlink="http://www.w3.org/1999/xlink" x="0px" y="0px"
	 viewBox="0 0 512.002 512.002" style="enable-background:new 0 0 512.002 512.002;" xml:space="preserve">
<path style="fill:#FD9133;" d="M511.382,176.552c0-19.5-15.81-35.31-35.31-35.31H35.928c-19.5,0-35.31,15.81-35.31,35.31v38.577
	c0.388,5.385,1.766,10.646,4.061,15.537c6.02-11.388,17.752-18.591,30.632-18.803H476.69c13.003,0.088,24.903,7.309,30.985,18.803
	c2.383-4.873,3.849-10.134,4.326-15.537L511.382,176.552z"/>
<path style="fill:#77A226;" d="M326.621,44.139h52.966l0,0l0,0c0,39-31.62,70.621-70.621,70.621H256l0,0l0,0
	C256,75.759,287.62,44.139,326.621,44.139z"/>
<path style="fill:#679522;" d="M256,114.759h52.966c39,0,70.621-31.62,70.621-70.621C353.81,68.415,303.757,109.463,256,114.141
	V114.759z"/>
<rect x="247.172" y="26.484" style="fill:#8C421C;" width="17.655" height="141.241"/>
<path style="fill:#77A226;" d="M324.237,485.518L324.237,485.518c-25.794,0.097-49.77-13.294-63.206-35.31l0,0
	c-1.624-2.781-5.191-3.716-7.971-2.092c-0.865,0.503-1.589,1.227-2.092,2.092l0,0c-13.436,22.016-37.411,35.407-63.206,35.31l0,0
	c-28.434,0-54.334-16.349-66.56-42.019l-35.928-75.476c-21.283-44.703-32.318-93.59-32.309-143.095l0,0
	c0-60.84,49.32-110.168,110.168-110.168l0,0l0,0c25.803-0.035,50.794,8.995,70.621,25.512l11.034,8.828
	c6.55,5.455,16.049,5.455,22.599,0l11.034-8.828c19.827-16.516,44.818-25.547,70.621-25.512l0,0
	c60.778,0.097,109.992,49.39,109.992,110.168l0,0c0.009,49.505-11.026,98.392-32.309,143.095l-35.928,75.476
	C378.571,469.169,352.671,485.527,324.237,485.518z"/>
<path style="fill:#679522;" d="M359.371,115.289c18.688,20.242,29.06,46.777,29.043,74.328l0,0
	c0.009,49.505-11.026,98.392-32.309,143.095l-35.928,75.476c-11.14,23.234-33.598,38.965-59.233,41.49l0,0
	c20.948,34.904,66.225,46.221,101.129,25.273c12.438-7.468,22.404-18.441,28.637-31.541l35.928-75.476
	c21.301-44.668,32.362-93.519,32.397-143.007l0,0C459.061,168.149,415.894,120.665,359.371,115.289z"/>
<rect x="247.172" y="26.484" style="fill:#8C421C;" width="17.655" height="123.586"/>
<polygon style="fill:#FDB62F;" points="109.727,344.277 96.75,347.366 78.124,351.868 0,370.759 0,441.38 67.09,425.137 
	107.785,415.339 256,379.587 "/>
<polygon style="fill:#F7A540;" points="256,379.587 109.727,344.277 96.75,347.366 78.124,351.868 66.648,354.693 207.713,391.239 
	"/>
<path style="fill:#FDB62F;" d="M433.876,351.868l-18.979-4.502l-12.623-3.09L256,308.966l-146.714-35.31l-54.378-13.241
	l-20.568-4.943C15.386,250.845,1.536,234.576,0,215.129c0-1.148,0-2.207,0-3.266v78.124c-0.009,16.313,11.158,30.508,27.012,34.339
	l44.756,11.123l27.189,6.621l10.77,2.56L256,379.587l148.127,35.31l40.783,9.799L512,441.38v-70.621L433.876,351.868z"/>
<g>
	<path id="SVGCleanerId_0" style="fill:#FDB62F;" d="M512,215.129c-1.501,19.377-15.228,35.619-34.074,40.342l-20.568,4.943
		l-54.643,13.241L256,308.966l146.273,35.31l10.77-2.56l27.189-6.268l44.756-10.77c15.987-3.866,27.189-18.247,27.012-34.692
		v-78.124C512,212.922,512,213.981,512,215.129z"/>
</g>
<g>
	<path id="SVGCleanerId_0_1_" style="fill:#FDB62F;" d="M512,215.129c-1.501,19.377-15.228,35.619-34.074,40.342l-20.568,4.943
		l-54.643,13.241L256,308.966l146.273,35.31l10.77-2.56l27.189-6.268l44.756-10.77c15.987-3.866,27.189-18.247,27.012-34.692
		v-78.124C512,212.922,512,213.981,512,215.129z"/>
</g>
<g>
	<path id="SVGCleanerId_0_2_" style="fill:#FDB62F;" d="M512,215.129c-1.501,19.377-15.228,35.619-34.074,40.342l-20.568,4.943
		l-54.643,13.241L256,308.966l146.273,35.31l10.77-2.56l27.189-6.268l44.756-10.77c15.987-3.866,27.189-18.247,27.012-34.692
		v-78.124C512,212.922,512,213.981,512,215.129z"/>
</g>
<g>
	<polygon style="fill:#E5E5E5;" points="0,370.759 0,441.38 35.31,432.817 35.31,362.197 	"/>
	<polygon style="fill:#E5E5E5;" points="512,370.759 476.69,362.197 476.69,432.817 512,441.38 	"/>
</g>
<g>
	<polygon style="fill:#8C421C;" points="423.724,349.485 423.724,379.587 441.379,379.587 441.379,353.722 433.876,351.868 	"/>
	<polygon style="fill:#8C421C;" points="397.241,370.759 397.241,343.041 379.586,338.804 379.586,370.759 	"/>
	<polygon style="fill:#8C421C;" points="335.448,353.104 353.103,353.104 353.103,332.448 335.448,328.122 	"/>
	<polygon style="fill:#8C421C;" points="291.31,344.277 308.966,344.277 308.966,321.766 291.31,317.529 	"/>
	<polygon style="fill:#8C421C;" points="264.828,335.449 264.828,311.085 256,308.966 247.172,306.848 247.172,335.449 	"/>
	<polygon style="fill:#8C421C;" points="220.69,326.621 220.69,300.404 203.034,296.166 203.034,326.621 	"/>
	<polygon style="fill:#8C421C;" points="176.552,317.794 176.552,289.81 158.897,285.485 158.897,317.794 	"/>
	<polygon style="fill:#8C421C;" points="132.414,300.139 132.414,279.129 114.759,274.892 114.759,300.139 	"/>
	<polygon style="fill:#8C421C;" points="88.276,291.311 88.276,268.448 70.621,264.21 70.621,291.311 	"/>
	<path style="fill:#8C421C;" d="M44.138,282.484v-24.629l-9.799-2.383c-2.684-0.715-5.314-1.624-7.857-2.737v29.749H44.138z"/>
	<polygon style="fill:#8C421C;" points="88.276,379.587 88.276,349.485 78.124,351.868 70.621,353.722 70.621,379.587 	"/>
	<polygon style="fill:#8C421C;" points="132.414,370.759 132.414,349.75 114.759,345.512 114.759,370.759 	"/>
	<polygon style="fill:#8C421C;" points="353.103,308.966 353.103,285.485 335.448,289.81 335.448,308.966 	"/>
	<polygon style="fill:#8C421C;" points="397.241,300.139 397.241,274.892 379.586,279.129 379.586,300.139 	"/>
	<polygon style="fill:#8C421C;" points="441.379,291.311 441.379,264.21 423.724,268.448 423.724,291.311 	"/>
	<path style="fill:#8C421C;" d="M485.517,282.484v-29.749c-2.542,1.112-5.173,2.022-7.857,2.737l-9.799,2.383v24.629H485.517z"/>
</g>
<g>
</g>
<g>
</g>
<g>
</g>
<g>
</g>
<g>
</g>
<g>
</g>
<g>
</g>
<g>
</g>
<g>
</g>
<g>
</g>
<g>
</g>
<g>
</g>
<g>
</g>
<g>
</g>
<g>
</g>
</svg>
