<?xml version="1.0" encoding="iso-8859-1"?>
<!-- Generator: Adobe Illustrator 19.0.0, SVG Export Plug-In . SVG Version: 6.00 Build 0)  -->
<svg version="1.1" id="Capa_1" xmlns="http://www.w3.org/2000/svg" xmlns:xlink="http://www.w3.org/1999/xlink" x="0px" y="0px"
	 viewBox="0 0 512 512" style="enable-background:new 0 0 512 512;" xml:space="preserve">
<rect x="56.407" y="321.085" style="fill:#4398D1;" width="52.068" height="190.915"/>
<path style="fill:#C7C7C7;" d="M256,364.475c-57.509,0-104.136-46.627-104.136-104.136v-82.788
	c-36.152,11.368-60.746,44.891-60.746,82.788v60.746H73.763v-60.746c0-47.486,32.117-88.967,78.102-100.838v-55.365
	C151.864,46.627,198.491,0,256,0h78.102c57.509,0,104.136,46.627,104.136,104.136v156.203h-17.356V104.136
	c0-47.928-38.851-86.78-86.78-86.78H256c-47.928,0-86.78,38.851-86.78,86.78v52.068c2.864,0,5.727,0,8.678,0H256
	c57.509,0,104.136,46.627,104.136,104.136S313.509,364.475,256,364.475z M169.22,173.993v86.346c0,47.928,38.851,86.78,86.78,86.78
	s86.78-38.851,86.78-86.78s-38.851-86.78-86.78-86.78h-78.102C174.948,173.559,172.084,173.559,169.22,173.993z"/>
<rect x="56.407" y="477.288" style="fill:#3F7DB8;" width="52.068" height="34.712"/>
<rect x="403.525" y="260.339" style="fill:#4398D1;" width="52.068" height="190.915"/>
<rect x="403.525" y="416.542" style="fill:#3F7DB8;" width="52.068" height="34.712"/>
<g>
</g>
<g>
</g>
<g>
</g>
<g>
</g>
<g>
</g>
<g>
</g>
<g>
</g>
<g>
</g>
<g>
</g>
<g>
</g>
<g>
</g>
<g>
</g>
<g>
</g>
<g>
</g>
<g>
</g>
</svg>
