<?xml version="1.0" encoding="iso-8859-1"?>
<!-- Generator: Adobe Illustrator 19.0.0, SVG Export Plug-In . SVG Version: 6.00 Build 0)  -->
<svg version="1.1" id="Capa_1" xmlns="http://www.w3.org/2000/svg" xmlns:xlink="http://www.w3.org/1999/xlink" x="0px" y="0px"
	 viewBox="0 0 512.014 512.014" style="enable-background:new 0 0 512.014 512.014;" xml:space="preserve">
<g>
	<path style="fill:#4398D1;" d="M37.427,335.4L37.427,335.4c-20.67,0-37.422,16.752-37.422,37.422l0,0l0,0
		c0,9.929,3.936,19.443,10.944,26.478l101.675,101.674c7.034,7.008,16.549,10.944,26.478,10.944l0,0
		c20.67,0,37.422-16.752,37.422-37.422l0,0l0,0c0-9.929-3.936-19.443-10.944-26.478L63.905,346.344
		C56.87,339.337,47.356,335.4,37.427,335.4z"/>
	<path style="fill:#4398D1;" d="M37.427,229.489L37.427,229.489c-20.67,0-37.422,16.752-37.422,37.422l0,0l0,0
		c0,9.929,3.936,19.443,10.944,26.478l207.585,207.585c7.034,7.008,16.549,10.944,26.478,10.944l0,0
		c20.67,0,37.422-16.752,37.422-37.422l0,0l0,0c0-9.929-3.936-19.443-10.944-26.478L63.905,240.434
		C56.87,233.426,47.356,229.489,37.427,229.489z"/>
	<path style="fill:#4398D1;" d="M474.486,176.534L474.486,176.534c20.67,0,37.422-16.752,37.422-37.422l0,0l0,0
		c0-9.929-3.936-19.443-10.944-26.478L399.289,10.96c-7.034-7.008-16.549-10.944-26.478-10.944l0,0
		c-20.67,0-37.422,16.752-37.422,37.422l0,0l0,0c0,9.929,3.936,19.443,10.944,26.478L448.008,165.59
		C455.043,172.598,464.557,176.534,474.486,176.534z"/>
</g>
<g>
	
		<rect x="19.267" y="430.395" transform="matrix(-0.7071 0.7071 -0.7071 -0.7071 406.3568 767.4023)" style="fill:#E5E5E5;" width="49.954" height="74.931"/>
	
		<rect x="131.263" y="218.56" transform="matrix(-0.7071 0.7071 -0.7071 -0.7071 618.1587 256.0007)" style="fill:#E5E5E5;" width="249.594" height="74.931"/>
	
		<rect x="442.878" y="6.688" transform="matrix(-0.7071 0.7071 -0.7071 -0.7071 829.9003 -255.4486)" style="fill:#E5E5E5;" width="49.954" height="74.931"/>
</g>
<path style="fill:#4398D1;" d="M474.486,282.445L474.486,282.445c20.67,0,37.422-16.752,37.422-37.422l0,0l0,0
	c0-9.929-3.936-19.443-10.944-26.478L293.378,10.96c-7.034-7.008-16.549-10.944-26.478-10.944l0,0
	c-20.67,0-37.422,16.752-37.422,37.422l0,0l0,0c0,9.929,3.936,19.443,10.944,26.478l207.585,207.585
	C455.043,278.508,464.557,282.445,474.486,282.445z"/>
<g>
	<path style="fill:#3E8CC7;" d="M500.964,112.634l-52.955-52.955c14.625,14.625,14.625,38.331,0,52.955
		c-14.625,14.625-38.331,14.625-52.955,0l52.955,52.955c14.625,14.625,38.331,14.625,52.955,0
		C515.588,150.965,515.588,127.259,500.964,112.634L500.964,112.634z"/>
	<path style="fill:#3E8CC7;" d="M500.964,218.545L397.171,114.753c14.625,14.625,14.625,38.331,0,52.955
		c-14.625,14.625-38.331,14.625-52.955,0l103.793,103.793c14.625,14.625,38.331,14.625,52.955,0
		C515.588,256.876,515.588,233.17,500.964,218.545z"/>
	<path style="fill:#3E8CC7;" d="M165.579,448.019l-52.955-52.955c14.625,14.625,14.625,38.331,0,52.955
		c-14.625,14.625-38.331,14.625-52.955,0l52.955,52.955c14.625,14.625,38.331,14.625,52.955,0
		C180.204,486.35,180.204,462.643,165.579,448.019L165.579,448.019z"/>
	<path style="fill:#3E8CC7;" d="M271.49,448.019L167.697,344.226c14.625,14.625,14.625,38.331,0,52.955
		c-14.625,14.625-38.331,14.625-52.955,0l103.793,103.793c14.625,14.625,38.331,14.625,52.955,0
		C286.115,486.35,286.115,462.643,271.49,448.019z"/>
</g>
<g>
	
		<rect x="32.337" y="462.305" transform="matrix(-0.7071 0.7071 -0.7071 -0.7071 437.9709 780.618)" style="fill:#CFCFCF;" width="49.954" height="37.422"/>
	
		<rect x="144.36" y="250.497" transform="matrix(-0.7071 0.7071 -0.7071 -0.7071 649.8393 269.244)" style="fill:#CFCFCF;" width="249.594" height="37.422"/>
	
		<rect x="456.005" y="38.68" transform="matrix(-0.7071 0.7071 -0.7071 -0.7071 861.6686 -242.1337)" style="fill:#CFCFCF;" width="49.954" height="37.422"/>
</g>
<g>
</g>
<g>
</g>
<g>
</g>
<g>
</g>
<g>
</g>
<g>
</g>
<g>
</g>
<g>
</g>
<g>
</g>
<g>
</g>
<g>
</g>
<g>
</g>
<g>
</g>
<g>
</g>
<g>
</g>
</svg>
