<?xml version="1.0" encoding="iso-8859-1"?>
<!-- Generator: Adobe Illustrator 19.0.0, SVG Export Plug-In . SVG Version: 6.00 Build 0)  -->
<svg version="1.1" id="Capa_1" xmlns="http://www.w3.org/2000/svg" xmlns:xlink="http://www.w3.org/1999/xlink" x="0px" y="0px"
	 viewBox="0 0 512 512" style="enable-background:new 0 0 512 512;" xml:space="preserve">
<rect x="353.104" y="8.828" style="fill:#679522;" width="97.103" height="52.966"/>
<polygon style="fill:#77A226;" points="353.104,8.828 450.207,8.828 450.207,26.483 361.931,52.966 "/>
<rect x="0" y="238.345" style="fill:#FD9133;" width="256" height="132.414"/>
<ellipse style="fill:#FDCA6A;" cx="256" cy="308.966" rx="105.931" ry="70.621"/>
<ellipse style="fill:#FD9133;" cx="256" cy="308.966" rx="61.793" ry="35.31"/>
<path style="fill:#E5E5E5;" d="M203.035,52.966v86.422c-0.026,17.735,8.819,34.295,23.57,44.138l2.913,1.854v155.454
	c17.355,4.59,35.61,4.59,52.966,0V185.379l2.913-1.942c14.751-9.843,23.596-26.403,23.57-44.138V52.966H203.035z"/>
<polygon style="fill:#D6D6D6;" points="308.966,52.966 203.035,52.966 203.035,79.448 308.966,93.573 "/>
<g>
	<rect x="229.517" y="52.966" style="fill:#CFCFCF;" width="17.655" height="88.276"/>
	<rect x="264.828" y="52.966" style="fill:#CFCFCF;" width="17.655" height="88.276"/>
</g>
<path style="fill:#FD7B2F;" d="M348.69,79.448h-39.724L83.774,54.466c-7.477-0.892-13.118-7.212-13.153-14.742l0,0
	c0.035-7.53,5.676-13.85,13.153-14.742L308.966,0h39.724c21.892-0.053,39.671,17.655,39.724,39.548c0,0.062,0,0.115,0,0.177l0,0
	c0.053,21.892-17.655,39.671-39.548,39.724C348.804,79.448,348.751,79.448,348.69,79.448z"/>
<path style="fill:#F46B27;" d="M378.88,14.124c-11.07,17.955-30.632,28.91-51.73,28.954h-256
	c1.359,6.126,6.471,10.708,12.712,11.388l225.103,24.982h39.724c21.839,0.106,39.636-17.505,39.742-39.353
	C388.484,30.57,385.086,21.345,378.88,14.124z"/>
<path style="fill:#FD9133;" d="M256,379.586V512c58.527,0,105.931-31.603,105.931-70.621V308.966
	C361.931,347.984,314.527,379.586,256,379.586z"/>
<path style="fill:#FDB62F;" d="M256,379.586c-58.527,0-105.931-31.603-105.931-70.621v132.414C150.069,480.397,197.473,512,256,512
	h256V379.586H256z"/>
<g>
	
		<rect x="436.734" y="393.062" transform="matrix(-0.0019 1 -1 -0.0019 861.829 -56.4145)" style="fill:#8C421C;" width="44.668" height="17.655"/>
	
		<rect x="392.645" y="393.106" transform="matrix(-0.0019 1 -1 -0.0019 817.6556 -12.2369)" style="fill:#8C421C;" width="44.579" height="17.655"/>
	
		<rect x="348.556" y="393.009" transform="matrix(-0.0019 1 -1 -0.0019 773.3411 31.7992)" style="fill:#8C421C;" width="44.491" height="17.655"/>
	
		<rect x="304.475" y="393" transform="matrix(-0.0019 1 -1 -0.0019 729.1238 75.9149)" style="fill:#8C421C;" width="44.403" height="17.655"/>
	
		<rect x="260.377" y="392.911" transform="matrix(-0.0019 1 -1 -0.0019 684.8091 119.9686)" style="fill:#8C421C;" width="44.315" height="17.655"/>
	<path style="fill:#8C421C;" d="M247.172,423.724v-44.138c-5.914-0.353-11.811-1.033-17.655-2.03v46.168H247.172z"/>
	<path style="fill:#8C421C;" d="M185.379,414.897h17.655v-44.844c-5.906-2.26-11.635-4.979-17.126-8.121h-0.53V414.897z"/>
</g>
<g>
	<rect x="317.793" y="0" style="fill:#DB631D;" width="17.655" height="35.31"/>
	<rect x="282.483" y="26.483" style="fill:#DB631D;" width="17.655" height="26.483"/>
	<polygon style="fill:#DB631D;" points="247.172,44.138 247.172,6.886 229.517,8.828 229.517,44.138 	"/>
	<polygon style="fill:#DB631D;" points="167.724,35.31 167.724,63.735 185.379,65.677 185.379,35.31 	"/>
</g>
<g>
</g>
<g>
</g>
<g>
</g>
<g>
</g>
<g>
</g>
<g>
</g>
<g>
</g>
<g>
</g>
<g>
</g>
<g>
</g>
<g>
</g>
<g>
</g>
<g>
</g>
<g>
</g>
<g>
</g>
</svg>
