<?xml version="1.0" encoding="iso-8859-1"?>
<!-- Generator: Adobe Illustrator 19.0.0, SVG Export Plug-In . SVG Version: 6.00 Build 0)  -->
<svg version="1.1" id="Capa_1" xmlns="http://www.w3.org/2000/svg" xmlns:xlink="http://www.w3.org/1999/xlink" x="0px" y="0px"
	 viewBox="0 0 512.006 512.006" style="enable-background:new 0 0 512.006 512.006;" xml:space="preserve">
<g>
	<path style="fill:#5A821E;" d="M449.929,102.181c0.264-6.712-0.115-13.442-1.145-20.084C440.6,29.209,391.095-7.03,338.207,1.153
		c-47.62,7.373-82.591,48.607-82.071,96.799c0,1.233,0,2.378,0,3.523c0.749,34.909-10.297,69.043-31.359,96.896
		c-51.584,70.761-36.037,169.947,34.724,221.531s169.947,36.037,221.531-34.724c41.216-56.543,40.503-133.417-1.771-189.186
		C458.887,169.083,448.52,135.91,449.929,102.181z"/>
	<path style="fill:#5A821E;" d="M256.136,163.842c0.264-6.712-0.115-13.442-1.145-20.084
		c-8.183-52.888-57.689-89.127-110.576-80.944c-47.62,7.373-82.591,48.607-82.071,96.799c0,1.233,0,2.378,0,3.523
		c0.749,34.909-10.297,69.043-31.359,96.896c-51.584,70.761-36.037,169.947,34.724,221.531s169.947,36.037,221.531-34.724
		c41.216-56.543,40.503-133.417-1.771-189.186C265.095,230.745,254.727,197.571,256.136,163.842z"/>
</g>
<path style="fill:#88B337;" d="M317.798,353.407c0.07-34.566-11.258-68.189-32.24-95.663
	c-20.428-26.928-30.831-60.129-29.421-93.901c0.264-6.712-0.115-13.442-1.145-20.084c-7.769-46.819-48.298-81.12-95.751-81.041
	V256.51c53.513,0,96.896,43.383,96.896,96.896s-43.383,96.896-96.896,96.896v61.661
	C246.808,511.964,317.798,440.983,317.798,353.407z"/>
<path style="fill:#8C421C;" d="M256.136,353.407c0-53.513-43.383-96.896-96.896-96.896v193.793
	C212.753,450.303,256.136,406.929,256.136,353.407z"/>
<g>
	<path style="fill:#779F2C;" d="M159.24,450.303v61.661c8.862-0.079,17.697-0.872,26.426-2.378v-62.983
		C177.078,449.052,168.181,450.303,159.24,450.303z"/>
	<path style="fill:#779F2C;" d="M185.666,66.329c-8.597-2.422-17.494-3.638-26.426-3.612V256.51
		c8.941,0.009,17.829,1.251,26.426,3.7V66.329z"/>
</g>
<path style="fill:#783614;" d="M185.666,260.21c-8.597-2.449-17.485-3.691-26.426-3.7v193.793c8.941-0.009,17.829-1.251,26.426-3.7
	V260.21z"/>
<g>
</g>
<g>
</g>
<g>
</g>
<g>
</g>
<g>
</g>
<g>
</g>
<g>
</g>
<g>
</g>
<g>
</g>
<g>
</g>
<g>
</g>
<g>
</g>
<g>
</g>
<g>
</g>
<g>
</g>
</svg>
