<?xml version="1.0" encoding="iso-8859-1"?>
<!-- Generator: Adobe Illustrator 19.0.0, SVG Export Plug-In . SVG Version: 6.00 Build 0)  -->
<svg version="1.1" id="Capa_1" xmlns="http://www.w3.org/2000/svg" xmlns:xlink="http://www.w3.org/1999/xlink" x="0px" y="0px"
	 viewBox="0 0 512 512" style="enable-background:new 0 0 512 512;" xml:space="preserve">
<path style="fill:#77A226;" d="M339.791,19.692h59.077l0,0l0,0c0,43.5-35.269,78.769-78.769,78.769h-59.077l0,0l0,0
	C261.022,54.961,296.29,19.692,339.791,19.692z"/>
<rect x="251.175" style="fill:#8C421C;" width="19.692" height="157.538"/>
<path style="fill:#77A226;" d="M336.049,512L336.049,512c-28.308-0.069-54.489-15.035-68.923-39.385l0,0
	c-1.989-3.367-6.341-4.49-9.708-2.501c-1.034,0.61-1.89,1.467-2.501,2.501l0,0c-14.434,24.35-40.615,39.316-68.923,39.385h-2.265
	c-30.976,0.02-59.185-17.802-72.468-45.785l-37.514-78.769c-25.866-54.114-39.316-113.319-39.385-173.292h0.197
	c0-63.892,51.801-115.692,115.692-115.692h9.846c27.057-0.02,53.258,9.452,74.043,26.782l14.277,11.914
	c7.306,6.085,17.9,6.085,25.206,0l14.277-11.914c20.785-17.329,46.986-26.801,74.043-26.782l0,0
	c63.892,0,115.692,51.801,115.692,115.692l0,0v8.271c-0.02,54.626-11.106,108.692-32.591,158.917l-35.151,81.92
	C397.223,492.8,368.187,511.97,336.049,512z"/>
<path style="fill:#679522;" d="M384.985,100.726C342.252,275.692,211.2,399.557,113.822,470.745
	c14.07,25.442,40.842,41.236,69.908,41.255h2.265c28.308-0.069,54.489-15.035,68.923-39.385c1.989-3.367,6.341-4.49,9.708-2.501
	c1.034,0.61,1.89,1.467,2.501,2.501c22.853,38.036,72.212,50.343,110.247,27.49c14.503-8.714,25.886-21.78,32.522-37.337
	l35.151-81.92c21.425-50.078,32.502-103.956,32.591-158.425v-8.271C477.627,159.134,438.892,111.724,384.985,100.726z"/>
<path style="fill:#D9D9D9;" d="M361.945,98.462c-27.057-0.02-53.258,9.452-74.043,26.782l-14.277,11.914
	c-3.525,2.974-7.985,4.608-12.603,4.628v327.779c2.511-0.049,4.854,1.27,6.105,3.446c22.853,38.036,72.212,50.343,110.247,27.49
	c14.503-8.714,25.886-21.78,32.522-37.337l35.151-81.92c21.474-50.196,32.561-104.222,32.591-158.818v-8.271
	C477.637,150.262,425.836,98.462,361.945,98.462z"/>
<path style="fill:#E5E5E5;" d="M261.022,354.462h19.692c32.63,0,59.077-26.447,59.077-59.077l0,0
	c0-32.63-26.447-59.077-59.077-59.077h-19.692L261.022,354.462L261.022,354.462z"/>
<rect x="290.56" y="285.538" style="fill:#8C421C;" width="19.692" height="19.692"/>
<g>
</g>
<g>
</g>
<g>
</g>
<g>
</g>
<g>
</g>
<g>
</g>
<g>
</g>
<g>
</g>
<g>
</g>
<g>
</g>
<g>
</g>
<g>
</g>
<g>
</g>
<g>
</g>
<g>
</g>
</svg>
