<?xml version="1.0" encoding="iso-8859-1"?>
<!-- Generator: Adobe Illustrator 19.0.0, SVG Export Plug-In . SVG Version: 6.00 Build 0)  -->
<svg version="1.1" id="Capa_1" xmlns="http://www.w3.org/2000/svg" xmlns:xlink="http://www.w3.org/1999/xlink" x="0px" y="0px"
	 viewBox="0 0 480.041 480.041" style="enable-background:new 0 0 480.041 480.041;" xml:space="preserve">
<linearGradient id="SVGID_1_" gradientUnits="userSpaceOnUse" x1="-18.3319" y1="617.8015" x2="-18.3319" y2="555.2335" gradientTransform="matrix(8 0 0 -8 454.7232 4930.9067)">
	<stop  offset="0" style="stop-color:#FC5C7D"/>
	<stop  offset="0.129" style="stop-color:#F35E85"/>
	<stop  offset="0.343" style="stop-color:#D9659B"/>
	<stop  offset="0.616" style="stop-color:#B070BF"/>
	<stop  offset="0.934" style="stop-color:#777FF0"/>
	<stop  offset="1" style="stop-color:#6A82FB"/>
</linearGradient>
<path style="fill:url(#SVGID_1_);" d="M336.04,318.879c-23.397,0.043-43.361,16.934-47.28,40h-24.72v-8h16v-16h-48v16h16v16
	c0,4.418,3.582,8,8,8h32.72c4.418,26.139,29.19,43.747,55.329,39.329c26.139-4.418,43.747-29.19,39.329-55.329
	C379.51,335.765,359.48,318.855,336.04,318.879z M336.04,398.879c-14.547-0.055-27.227-9.915-30.864-24h30.864v-16h-30.864
	c4.449-17.072,21.896-27.305,38.967-22.855c17.072,4.449,27.305,21.896,22.855,38.967C363.327,389.077,350.597,398.9,336.04,398.879
	z"/>
<g>
	
		<linearGradient id="SVGID_2_" gradientUnits="userSpaceOnUse" x1="-26.8378" y1="617.8015" x2="-26.8378" y2="555.2335" gradientTransform="matrix(8 0 0 -8 454.7232 4930.9067)">
		<stop  offset="0" style="stop-color:#FC5C7D"/>
		<stop  offset="0.129" style="stop-color:#F35E85"/>
		<stop  offset="0.343" style="stop-color:#D9659B"/>
		<stop  offset="0.616" style="stop-color:#B070BF"/>
		<stop  offset="0.934" style="stop-color:#777FF0"/>
		<stop  offset="1" style="stop-color:#6A82FB"/>
	</linearGradient>
	<path style="fill:url(#SVGID_2_);" d="M112.04,478.879c35.08-0.059,68.101-16.567,89.2-44.592c0.856,0.152,1.648,0.32,2.504,0.472
		c27.914,4.704,56.049,7.991,84.296,9.848v10.272c0,13.255,10.745,24,24,24l0,0h32c13.255,0,24-10.745,24-24l0,0V443.19
		c32.658-10.339,55.129-40.298,55.912-74.544l31.52-78.792c1.643-4.101-0.349-8.758-4.451-10.401
		c-0.424-0.17-0.862-0.303-1.309-0.398l-8.984-1.928l39.072-156.304c1.074-4.286-1.53-8.631-5.816-9.704
		c-0.636-0.159-1.288-0.24-1.944-0.24h-24V64.815l22.912-22.904c9.373-9.372,9.375-24.568,0.003-33.941
		c-0.001-0.001-0.002-0.002-0.003-0.003c-9.493-9.072-24.443-9.072-33.936,0l-67.888,67.88c-9.373,9.372-9.375,24.568-0.003,33.941
		c0.001,0.001,0.002,0.002,0.003,0.003c9.372,9.369,24.564,9.369,33.936,0l28.976-28.976v30.064h-8
		c-3.635,0.001-6.813,2.452-7.736,5.968l-7.36,28l-18.2,6.032h-38.704v16h40c0.859,0.001,1.713-0.137,2.528-0.408l9.512-3.2
		l-26.4,100.312l-40-8.56c-4.324-0.906-8.564,1.866-9.47,6.19c-0.115,0.548-0.172,1.106-0.17,1.666v24.264
		c-16.744,0.472-39.72,1.672-64.696,4l-28.504-108.264h13.2v-16h-17.408l-4.192-16h17.6c15.464,0,28-12.536,28-28s-12.536-28-28-28
		h-88c-15.464,0-28,12.536-28,28s12.536,28,28,28h21.752l4,16H160.04v16h25.752l28.592,114.4c-3.568,0.56-7.115,1.147-10.64,1.76
		c-0.856,0.152-1.648,0.32-2.504,0.472c-37.251-49.326-107.435-59.116-156.761-21.865C-4.848,314.896-14.637,385.08,22.613,434.407
		C43.788,462.446,76.902,478.914,112.04,478.879L112.04,478.879z M391.752,98.479c-3.161,3.024-8.143,3.024-11.304,0
		c-3.118-3.123-3.118-8.181,0-11.304l67.88-67.896c3.07-3.178,8.134-3.266,11.312-0.196c3.178,3.07,3.266,8.134,0.196,11.312
		c-0.064,0.067-0.13,0.132-0.196,0.196L391.752,98.479z M352.04,446.879v8c0,4.418-3.582,8-8,8h-32c-4.418,0-8-3.582-8-8v-8H352.04z
		 M344.04,430.879c-75.2,0-240-16.12-240-64s164.8-64,240-64c35.346,0,64,28.654,64,64S379.386,430.879,344.04,430.879z
		 M115.592,406.647c-1.152,0.104-2.36,0.232-3.552,0.232c-22.091,0-40-17.909-40-40s17.909-40,40-40c1.192,0,2.4,0.128,3.552,0.232
		C97.32,338.263,88.04,351.527,88.04,366.879S97.32,395.495,115.592,406.647z M422.216,157.279l20.352-6.784l-5.056-15.2l-10.4,3.48
		l3.096-11.896h31.584l-36.72,146.896l-31.728-6.8L422.216,157.279z M344.04,272.775l93.048,19.936l-18.328,45.824
		c-11.783-31.049-41.511-51.6-74.72-51.656V272.775z M144.04,122.879c0-6.627,5.373-12,12-12h88c6.627,0,12,5.373,12,12
		c0,6.627-5.373,12-12,12h-88C149.412,134.879,144.04,129.506,144.04,122.879z M194.288,150.879h15.584l4.208,16h-15.792
		L194.288,150.879z M202.288,182.879h16l28.952,109.968c-5.6,0.632-11.264,1.336-16.928,2.088L202.288,182.879z M112.04,270.879
		c27.349,0.011,53.395,11.687,71.6,32.096c-15.98,3.302-31.662,7.91-46.888,13.776c-27.685-13.787-61.305-2.521-75.092,25.164
		c-13.787,27.685-2.521,61.305,25.164,75.092c15.722,7.829,34.206,7.829,49.927,0c15.226,5.866,30.908,10.474,46.888,13.776
		c-35.293,39.566-95.978,43.029-135.544,7.736S5.066,342.54,40.36,302.974C58.583,282.545,84.663,270.867,112.04,270.879z"/>
	
		<linearGradient id="SVGID_3_" gradientUnits="userSpaceOnUse" x1="-39.8355" y1="617.8015" x2="-39.8355" y2="555.2335" gradientTransform="matrix(8 0 0 -8 454.7232 4930.9067)">
		<stop  offset="0" style="stop-color:#FC5C7D"/>
		<stop  offset="0.129" style="stop-color:#F35E85"/>
		<stop  offset="0.343" style="stop-color:#D9659B"/>
		<stop  offset="0.616" style="stop-color:#B070BF"/>
		<stop  offset="0.934" style="stop-color:#777FF0"/>
		<stop  offset="1" style="stop-color:#6A82FB"/>
	</linearGradient>
	<path style="fill:url(#SVGID_3_);" d="M128.04,358.879h16v16h-16V358.879z"/>
	
		<linearGradient id="SVGID_4_" gradientUnits="userSpaceOnUse" x1="-35.8355" y1="617.8015" x2="-35.8355" y2="555.2335" gradientTransform="matrix(8 0 0 -8 454.7232 4930.9067)">
		<stop  offset="0" style="stop-color:#FC5C7D"/>
		<stop  offset="0.129" style="stop-color:#F35E85"/>
		<stop  offset="0.343" style="stop-color:#D9659B"/>
		<stop  offset="0.616" style="stop-color:#B070BF"/>
		<stop  offset="0.934" style="stop-color:#777FF0"/>
		<stop  offset="1" style="stop-color:#6A82FB"/>
	</linearGradient>
	<path style="fill:url(#SVGID_4_);" d="M160.04,358.879h16v16h-16V358.879z"/>
	
		<linearGradient id="SVGID_5_" gradientUnits="userSpaceOnUse" x1="-31.8355" y1="617.8015" x2="-31.8355" y2="555.2335" gradientTransform="matrix(8 0 0 -8 454.7232 4930.9067)">
		<stop  offset="0" style="stop-color:#FC5C7D"/>
		<stop  offset="0.129" style="stop-color:#F35E85"/>
		<stop  offset="0.343" style="stop-color:#D9659B"/>
		<stop  offset="0.616" style="stop-color:#B070BF"/>
		<stop  offset="0.934" style="stop-color:#777FF0"/>
		<stop  offset="1" style="stop-color:#6A82FB"/>
	</linearGradient>
	<path style="fill:url(#SVGID_5_);" d="M192.04,358.879h16v16h-16V358.879z"/>
</g>
<g>
</g>
<g>
</g>
<g>
</g>
<g>
</g>
<g>
</g>
<g>
</g>
<g>
</g>
<g>
</g>
<g>
</g>
<g>
</g>
<g>
</g>
<g>
</g>
<g>
</g>
<g>
</g>
<g>
</g>
</svg>
